<svg xmlns="http://www.w3.org/2000/svg" width="373" height="375" fill="none"><path fill="#000" d="m182.335 190.501.001 15c0 87.695-25.26 137.082-61.307 157.794-35.648 20.482-76.335 9.454-97.688-11.899l-.496-.502c-20.932-21.388-32.288-62.116-12.788-98.057 20.019-36.898 68.98-62.835 156.779-62.835l14.999-.001h.5v.5Zm21.167.501c87.694 0 137.082 25.259 157.794 61.307 20.481 35.648 9.453 76.334-11.9 97.687l-.502.498c-21.387 20.931-62.116 32.286-98.056 12.788-36.899-20.02-62.835-68.98-62.835-156.78l-.001-15v-.499h.5l15-.001Zm-52.471 30.315c-71.87 2.908-102.537 25.68-113.726 46.303-12.15 22.396-5 48.309 7.364 61.25l.593.605c12.618 12.618 38.198 19.655 60.325 6.941 20.299-11.664 42.6-43.039 45.444-115.099Zm68.285.99c2.909 71.87 25.681 102.536 46.305 113.726 22.395 12.15 48.307 4.999 61.248-7.364l.606-.592c12.618-12.618 19.655-38.199 6.942-60.326-11.664-20.299-43.04-42.6-115.101-45.444ZM23.34 22.757C41.373 4.722 72.758-5.719 103.39 3.3c31.773 9.356 59.008 38.292 71.463 91.695 1.702 7.296 2.513 12.866 2.945 15.206l4.227 22.891.141.764-.753-.188-22.593-5.61c-6.48-1.609-47.914-13.745-70.778-20.703l-14.35-4.367-.48-.147.146-.478 8.736-28.7.145-.478.479.145 14.35 4.368c12.542 3.817 30.218 9.048 44.653 13.261-11.36-37.812-30.566-53.056-47.088-57.921-19.185-5.65-38.94 1.206-49.373 11.638l-.593.606c-12.363 12.94-19.514 38.853-7.364 61.249 11.977 22.076 46.275 46.618 129.531 46.618l15 .001h.5v.5l-.001 30v.5h-.5l-14.999-.001c-87.8 0-136.76-25.937-156.78-62.835-19.498-35.94-8.143-76.67 12.789-98.057l.496-.502Zm227.497-11.7c35.94-19.5 76.669-8.144 98.056 12.788l.502.496c21.353 21.353 32.382 62.04 11.901 97.689-20.712 36.047-70.1 61.306-157.794 61.306l-15.001-.001h-.5v-.5l.002-14.999c0-87.8 25.935-136.76 62.834-156.779Zm76.032 34.612c-12.941-12.363-38.853-19.513-61.249-7.363-20.624 11.19-43.395 41.856-46.304 113.726 72.061-2.844 103.437-25.145 115.101-45.445 12.713-22.127 5.676-47.707-6.942-60.325l-.606-.593Z"/></svg>